<svg width="234" height="78" viewBox="0 0 234 78" fill="none" xmlns="http://www.w3.org/2000/svg">
<g filter="url(#filter0_ddd_80_2039)">
<path d="M49.9513 16.2H16.6713V26.056H28.1913V61H38.4313V26.056H49.9513V16.2ZM77.9858 61H88.9938L79.4578 44.552C84.3857 42.056 87.7138 37.064 87.7138 31.56C87.7138 23.048 80.8658 16.2 72.3538 16.2H54.4338V61H64.6738V46.28H69.5378L77.9858 61ZM64.6738 25.8H72.3538C75.1698 25.8 77.4738 28.296 77.4738 31.56C77.4738 34.824 75.1698 37.32 72.3538 37.32H64.6738V25.8ZM104.049 51.144V43.208H120.049V33.48H104.049V26.056H121.649V16.2H93.8088V61H121.969V51.144H104.049ZM144.706 16.2H127.746V61H137.986V46.92H144.706C153.538 46.92 160.386 40.072 160.386 31.56C160.386 23.048 153.538 16.2 144.706 16.2ZM144.706 37.32H137.986V25.8H144.706C147.842 25.8 150.146 28.296 150.146 31.56C150.146 34.824 147.842 37.32 144.706 37.32ZM165.496 16.2V61H175.736V16.2H165.496ZM206.986 61H217.994L208.458 44.552C213.386 42.056 216.714 37.064 216.714 31.56C216.714 23.048 209.866 16.2 201.354 16.2H183.434V61H193.674V46.28H198.538L206.986 61ZM193.674 25.8H201.354C204.17 25.8 206.474 28.296 206.474 31.56C206.474 34.824 204.17 37.32 201.354 37.32H193.674V25.8Z" fill="#1CB985"/>
</g>
<defs>
<filter id="filter0_ddd_80_2039" x="0" y="-15" width="235" height="110" filterUnits="userSpaceOnUse" color-interpolation-filters="sRGB">
<feFlood flood-opacity="0" result="BackgroundImageFix"/>
<feColorMatrix in="SourceAlpha" type="matrix" values="0 0 0 0 0 0 0 0 0 0 0 0 0 0 0 0 0 0 127 0" result="hardAlpha"/>
<feMorphology radius="2" operator="dilate" in="SourceAlpha" result="effect1_dropShadow_80_2039"/>
<feOffset dy="2"/>
<feGaussianBlur stdDeviation="2.5"/>
<feColorMatrix type="matrix" values="0 0 0 0 0 0 0 0 0 0 0 0 0 0 0 0 0 0 0.2 0"/>
<feBlend mode="normal" in2="BackgroundImageFix" result="effect1_dropShadow_80_2039"/>
<feColorMatrix in="SourceAlpha" type="matrix" values="0 0 0 0 0 0 0 0 0 0 0 0 0 0 0 0 0 0 127 0" result="hardAlpha"/>
<feMorphology radius="2" operator="dilate" in="SourceAlpha" result="effect2_dropShadow_80_2039"/>
<feOffset dy="1"/>
<feGaussianBlur stdDeviation="7"/>
<feColorMatrix type="matrix" values="0 0 0 0 0 0 0 0 0 0 0 0 0 0 0 0 0 0 0.12 0"/>
<feBlend mode="normal" in2="effect1_dropShadow_80_2039" result="effect2_dropShadow_80_2039"/>
<feColorMatrix in="SourceAlpha" type="matrix" values="0 0 0 0 0 0 0 0 0 0 0 0 0 0 0 0 0 0 127 0" result="hardAlpha"/>
<feMorphology radius="3" operator="dilate" in="SourceAlpha" result="effect3_dropShadow_80_2039"/>
<feOffset dy="2"/>
<feGaussianBlur stdDeviation="5"/>
<feColorMatrix type="matrix" values="0 0 0 0 0 0 0 0 0 0 0 0 0 0 0 0 0 0 0.14 0"/>
<feBlend mode="normal" in2="effect2_dropShadow_80_2039" result="effect3_dropShadow_80_2039"/>
<feBlend mode="normal" in="SourceGraphic" in2="effect3_dropShadow_80_2039" result="shape"/>
</filter>
</defs>
</svg>
